<svg width="119" height="153" viewBox="0 0 119 153" fill="none" xmlns="http://www.w3.org/2000/svg">
<rect width="119" height="51" rx="7" fill="#B9FF66"/>
<path d="M9.92 39V11H14.24V35.08H27.72V39H9.92ZM37.9178 39.56C36.5045 39.56 35.2378 39.32 34.1178 38.84C33.0245 38.36 32.1445 37.6533 31.4778 36.72C30.8378 35.7867 30.5178 34.6533 30.5178 33.32C30.5178 31.96 30.8378 30.84 31.4778 29.96C32.1445 29.0533 33.0378 28.3733 34.1578 27.92C35.3045 27.4667 36.5978 27.24 38.0378 27.24H44.0378V25.96C44.0378 24.8133 43.6911 23.8933 42.9978 23.2C42.3045 22.5067 41.2378 22.16 39.7978 22.16C38.3845 22.16 37.3045 22.4933 36.5578 23.16C35.8111 23.8267 35.3178 24.6933 35.0778 25.76L31.2378 24.52C31.5578 23.4533 32.0645 22.4933 32.7578 21.64C33.4778 20.76 34.4245 20.0533 35.5978 19.52C36.7711 18.9867 38.1845 18.72 39.8378 18.72C42.3978 18.72 44.4111 19.3733 45.8778 20.68C47.3445 21.9867 48.0778 23.84 48.0778 26.24V34.36C48.0778 35.16 48.4511 35.56 49.1978 35.56H50.8778V39H47.7978C46.8645 39 46.1045 38.76 45.5178 38.28C44.9311 37.8 44.6378 37.1467 44.6378 36.32V36.2H44.0378C43.8245 36.6 43.5045 37.0667 43.0778 37.6C42.6511 38.1333 42.0245 38.6 41.1978 39C40.3711 39.3733 39.2778 39.56 37.9178 39.56ZM38.5178 36.16C40.1711 36.16 41.5045 35.6933 42.5178 34.76C43.5311 33.8 44.0378 32.4933 44.0378 30.84V30.44H38.2778C37.1845 30.44 36.3045 30.68 35.6378 31.16C34.9711 31.6133 34.6378 32.2933 34.6378 33.2C34.6378 34.1067 34.9845 34.8267 35.6778 35.36C36.3711 35.8933 37.3178 36.16 38.5178 36.16ZM66.2838 39.56C64.3638 39.56 62.8838 39.2133 61.8438 38.52C60.8304 37.8267 60.0704 37.0533 59.5638 36.2H58.9238V39H54.8838V11H59.0038V21.96H59.6438C59.9638 21.4267 60.3904 20.92 60.9238 20.44C61.4571 19.9333 62.1638 19.52 63.0438 19.2C63.9238 18.88 65.0038 18.72 66.2838 18.72C67.9371 18.72 69.4571 19.12 70.8438 19.92C72.2304 20.72 73.3371 21.88 74.1638 23.4C74.9904 24.92 75.4038 26.7333 75.4038 28.84V29.44C75.4038 31.5733 74.9771 33.4 74.1238 34.92C73.2971 36.4133 72.1904 37.56 70.8038 38.36C69.4438 39.16 67.9371 39.56 66.2838 39.56ZM65.0838 35.96C66.8704 35.96 68.3371 35.3867 69.4838 34.24C70.6571 33.0933 71.2438 31.4533 71.2438 29.32V28.96C71.2438 26.8533 70.6704 25.2267 69.5238 24.08C68.3771 22.9333 66.8971 22.36 65.0838 22.36C63.3238 22.36 61.8571 22.9333 60.6838 24.08C59.5371 25.2267 58.9638 26.8533 58.9638 28.96V29.32C58.9638 31.4533 59.5371 33.0933 60.6838 34.24C61.8571 35.3867 63.3238 35.96 65.0838 35.96ZM89.5488 39.56C87.5488 39.56 85.8021 39.1467 84.3088 38.32C82.8154 37.4667 81.6421 36.28 80.7888 34.76C79.9621 33.2133 79.5488 31.4267 79.5488 29.4V28.92C79.5488 26.8667 79.9621 25.08 80.7888 23.56C81.6154 22.0133 82.7621 20.8267 84.2288 20C85.7221 19.1467 87.4421 18.72 89.3888 18.72C91.2821 18.72 92.9354 19.1467 94.3488 20C95.7888 20.8267 96.9088 21.9867 97.7088 23.48C98.5088 24.9733 98.9088 26.72 98.9088 28.72V30.28H83.7488C83.8021 32.0133 84.3754 33.4 85.4688 34.44C86.5888 35.4533 87.9754 35.96 89.6288 35.96C91.1754 35.96 92.3354 35.6133 93.1088 34.92C93.9088 34.2267 94.5221 33.4267 94.9488 32.52L98.3488 34.28C97.9754 35.0267 97.4288 35.8133 96.7088 36.64C96.0154 37.4667 95.0954 38.16 93.9488 38.72C92.8021 39.28 91.3354 39.56 89.5488 39.56ZM83.7888 27.12H94.7088C94.6021 25.6267 94.0688 24.4667 93.1088 23.64C92.1488 22.7867 90.8954 22.36 89.3488 22.36C87.8021 22.36 86.5354 22.7867 85.5488 23.64C84.5888 24.4667 84.0021 25.6267 83.7888 27.12ZM103.868 39V11H107.988V39H103.868Z" fill="black"/>
<rect y="51" width="119" height="51" rx="7" fill="#B9FF66"/>
<path d="M9.92 90V62H14.24V86.08H27.72V90H9.92ZM37.9178 90.56C36.5045 90.56 35.2378 90.32 34.1178 89.84C33.0245 89.36 32.1445 88.6533 31.4778 87.72C30.8378 86.7867 30.5178 85.6533 30.5178 84.32C30.5178 82.96 30.8378 81.84 31.4778 80.96C32.1445 80.0533 33.0378 79.3733 34.1578 78.92C35.3045 78.4667 36.5978 78.24 38.0378 78.24H44.0378V76.96C44.0378 75.8133 43.6911 74.8933 42.9978 74.2C42.3045 73.5067 41.2378 73.16 39.7978 73.16C38.3845 73.16 37.3045 73.4933 36.5578 74.16C35.8111 74.8267 35.3178 75.6933 35.0778 76.76L31.2378 75.52C31.5578 74.4533 32.0645 73.4933 32.7578 72.64C33.4778 71.76 34.4245 71.0533 35.5978 70.52C36.7711 69.9867 38.1845 69.72 39.8378 69.72C42.3978 69.72 44.4111 70.3733 45.8778 71.68C47.3445 72.9867 48.0778 74.84 48.0778 77.24V85.36C48.0778 86.16 48.4511 86.56 49.1978 86.56H50.8778V90H47.7978C46.8645 90 46.1045 89.76 45.5178 89.28C44.9311 88.8 44.6378 88.1467 44.6378 87.32V87.2H44.0378C43.8245 87.6 43.5045 88.0667 43.0778 88.6C42.6511 89.1333 42.0245 89.6 41.1978 90C40.3711 90.3733 39.2778 90.56 37.9178 90.56ZM38.5178 87.16C40.1711 87.16 41.5045 86.6933 42.5178 85.76C43.5311 84.8 44.0378 83.4933 44.0378 81.84V81.44H38.2778C37.1845 81.44 36.3045 81.68 35.6378 82.16C34.9711 82.6133 34.6378 83.2933 34.6378 84.2C34.6378 85.1067 34.9845 85.8267 35.6778 86.36C36.3711 86.8933 37.3178 87.16 38.5178 87.16ZM66.2838 90.56C64.3638 90.56 62.8838 90.2133 61.8438 89.52C60.8304 88.8267 60.0704 88.0533 59.5638 87.2H58.9238V90H54.8838V62H59.0038V72.96H59.6438C59.9638 72.4267 60.3904 71.92 60.9238 71.44C61.4571 70.9333 62.1638 70.52 63.0438 70.2C63.9238 69.88 65.0038 69.72 66.2838 69.72C67.9371 69.72 69.4571 70.12 70.8438 70.92C72.2304 71.72 73.3371 72.88 74.1638 74.4C74.9904 75.92 75.4038 77.7333 75.4038 79.84V80.44C75.4038 82.5733 74.9771 84.4 74.1238 85.92C73.2971 87.4133 72.1904 88.56 70.8038 89.36C69.4438 90.16 67.9371 90.56 66.2838 90.56ZM65.0838 86.96C66.8704 86.96 68.3371 86.3867 69.4838 85.24C70.6571 84.0933 71.2438 82.4533 71.2438 80.32V79.96C71.2438 77.8533 70.6704 76.2267 69.5238 75.08C68.3771 73.9333 66.8971 73.36 65.0838 73.36C63.3238 73.36 61.8571 73.9333 60.6838 75.08C59.5371 76.2267 58.9638 77.8533 58.9638 79.96V80.32C58.9638 82.4533 59.5371 84.0933 60.6838 85.24C61.8571 86.3867 63.3238 86.96 65.0838 86.96ZM89.5488 90.56C87.5488 90.56 85.8021 90.1467 84.3088 89.32C82.8154 88.4667 81.6421 87.28 80.7888 85.76C79.9621 84.2133 79.5488 82.4267 79.5488 80.4V79.92C79.5488 77.8667 79.9621 76.08 80.7888 74.56C81.6154 73.0133 82.7621 71.8267 84.2288 71C85.7221 70.1467 87.4421 69.72 89.3888 69.72C91.2821 69.72 92.9354 70.1467 94.3488 71C95.7888 71.8267 96.9088 72.9867 97.7088 74.48C98.5088 75.9733 98.9088 77.72 98.9088 79.72V81.28H83.7488C83.8021 83.0133 84.3754 84.4 85.4688 85.44C86.5888 86.4533 87.9754 86.96 89.6288 86.96C91.1754 86.96 92.3354 86.6133 93.1088 85.92C93.9088 85.2267 94.5221 84.4267 94.9488 83.52L98.3488 85.28C97.9754 86.0267 97.4288 86.8133 96.7088 87.64C96.0154 88.4667 95.0954 89.16 93.9488 89.72C92.8021 90.28 91.3354 90.56 89.5488 90.56ZM83.7888 78.12H94.7088C94.6021 76.6267 94.0688 75.4667 93.1088 74.64C92.1488 73.7867 90.8954 73.36 89.3488 73.36C87.8021 73.36 86.5354 73.7867 85.5488 74.64C84.5888 75.4667 84.0021 76.6267 83.7888 78.12ZM103.868 90V62H107.988V90H103.868Z" fill="black"/>
<rect y="102" width="119" height="51" rx="7" fill="#B9FF66"/>
<path d="M9.92 141V113H14.24V137.08H27.72V141H9.92ZM37.9178 141.56C36.5045 141.56 35.2378 141.32 34.1178 140.84C33.0245 140.36 32.1445 139.653 31.4778 138.72C30.8378 137.787 30.5178 136.653 30.5178 135.32C30.5178 133.96 30.8378 132.84 31.4778 131.96C32.1445 131.053 33.0378 130.373 34.1578 129.92C35.3045 129.467 36.5978 129.24 38.0378 129.24H44.0378V127.96C44.0378 126.813 43.6911 125.893 42.9978 125.2C42.3045 124.507 41.2378 124.16 39.7978 124.16C38.3845 124.16 37.3045 124.493 36.5578 125.16C35.8111 125.827 35.3178 126.693 35.0778 127.76L31.2378 126.52C31.5578 125.453 32.0645 124.493 32.7578 123.64C33.4778 122.76 34.4245 122.053 35.5978 121.52C36.7711 120.987 38.1845 120.72 39.8378 120.72C42.3978 120.72 44.4111 121.373 45.8778 122.68C47.3445 123.987 48.0778 125.84 48.0778 128.24V136.36C48.0778 137.16 48.4511 137.56 49.1978 137.56H50.8778V141H47.7978C46.8645 141 46.1045 140.76 45.5178 140.28C44.9311 139.8 44.6378 139.147 44.6378 138.32V138.2H44.0378C43.8245 138.6 43.5045 139.067 43.0778 139.6C42.6511 140.133 42.0245 140.6 41.1978 141C40.3711 141.373 39.2778 141.56 37.9178 141.56ZM38.5178 138.16C40.1711 138.16 41.5045 137.693 42.5178 136.76C43.5311 135.8 44.0378 134.493 44.0378 132.84V132.44H38.2778C37.1845 132.44 36.3045 132.68 35.6378 133.16C34.9711 133.613 34.6378 134.293 34.6378 135.2C34.6378 136.107 34.9845 136.827 35.6778 137.36C36.3711 137.893 37.3178 138.16 38.5178 138.16ZM66.2838 141.56C64.3638 141.56 62.8838 141.213 61.8438 140.52C60.8304 139.827 60.0704 139.053 59.5638 138.2H58.9238V141H54.8838V113H59.0038V123.96H59.6438C59.9638 123.427 60.3904 122.92 60.9238 122.44C61.4571 121.933 62.1638 121.52 63.0438 121.2C63.9238 120.88 65.0038 120.72 66.2838 120.72C67.9371 120.72 69.4571 121.12 70.8438 121.92C72.2304 122.72 73.3371 123.88 74.1638 125.4C74.9904 126.92 75.4038 128.733 75.4038 130.84V131.44C75.4038 133.573 74.9771 135.4 74.1238 136.92C73.2971 138.413 72.1904 139.56 70.8038 140.36C69.4438 141.16 67.9371 141.56 66.2838 141.56ZM65.0838 137.96C66.8704 137.96 68.3371 137.387 69.4838 136.24C70.6571 135.093 71.2438 133.453 71.2438 131.32V130.96C71.2438 128.853 70.6704 127.227 69.5238 126.08C68.3771 124.933 66.8971 124.36 65.0838 124.36C63.3238 124.36 61.8571 124.933 60.6838 126.08C59.5371 127.227 58.9638 128.853 58.9638 130.96V131.32C58.9638 133.453 59.5371 135.093 60.6838 136.24C61.8571 137.387 63.3238 137.96 65.0838 137.96ZM89.5488 141.56C87.5488 141.56 85.8021 141.147 84.3088 140.32C82.8154 139.467 81.6421 138.28 80.7888 136.76C79.9621 135.213 79.5488 133.427 79.5488 131.4V130.92C79.5488 128.867 79.9621 127.08 80.7888 125.56C81.6154 124.013 82.7621 122.827 84.2288 122C85.7221 121.147 87.4421 120.72 89.3888 120.72C91.2821 120.72 92.9354 121.147 94.3488 122C95.7888 122.827 96.9088 123.987 97.7088 125.48C98.5088 126.973 98.9088 128.72 98.9088 130.72V132.28H83.7488C83.8021 134.013 84.3754 135.4 85.4688 136.44C86.5888 137.453 87.9754 137.96 89.6288 137.96C91.1754 137.96 92.3354 137.613 93.1088 136.92C93.9088 136.227 94.5221 135.427 94.9488 134.52L98.3488 136.28C97.9754 137.027 97.4288 137.813 96.7088 138.64C96.0154 139.467 95.0954 140.16 93.9488 140.72C92.8021 141.28 91.3354 141.56 89.5488 141.56ZM83.7888 129.12H94.7088C94.6021 127.627 94.0688 126.467 93.1088 125.64C92.1488 124.787 90.8954 124.36 89.3488 124.36C87.8021 124.36 86.5354 124.787 85.5488 125.64C84.5888 126.467 84.0021 127.627 83.7888 129.12ZM103.868 141V113H107.988V141H103.868Z" fill="black"/>
</svg>
